<svg width="26" height="26" viewBox="0 0 26 26" fill="none" xmlns="http://www.w3.org/2000/svg">
<path d="M15.6666 3.66667C15.6666 2.95942 15.3856 2.28115 14.8855 1.78105C14.3854 1.28095 13.7071 1 12.9999 1C12.2927 1 11.6144 1.28095 11.1143 1.78105C10.6142 2.28115 10.3332 2.95942 10.3332 3.66667M18.9999 25H21.8919C22.2763 24.9999 22.6561 24.9166 23.0053 24.756C23.3545 24.5954 23.6648 24.3611 23.9151 24.0694C24.1653 23.7776 24.3495 23.4352 24.4551 23.0656C24.5606 22.696 24.585 22.3079 24.5266 21.928L22.6812 9.928C22.5844 9.29835 22.2654 8.72416 21.7818 8.30937C21.2983 7.89458 20.6823 7.66659 20.0452 7.66667H5.95457C5.31752 7.66659 4.70148 7.89458 4.21796 8.30937C3.73445 8.72416 3.4154 9.29835 3.31857 9.928L1.4719 21.928C1.41346 22.308 1.43789 22.6962 1.54351 23.0659C1.64913 23.4356 1.83345 23.7781 2.08383 24.0699C2.33421 24.3617 2.64473 24.5959 2.99409 24.7564C3.34346 24.9169 3.72341 25 4.1079 25H6.9999H18.9999ZM12.9999 22.3333V13V22.3333ZM12.9999 13L16.9999 17L12.9999 13ZM12.9999 13L8.9999 17L12.9999 13Z" stroke="#311C1C" stroke-width="2" stroke-linecap="round" stroke-linejoin="round"/>
</svg>
