<svg width="26" height="25" viewBox="0 0 26 25" fill="none" xmlns="http://www.w3.org/2000/svg">
<path d="M4.66656 5.48297L0.883057 1.70064L2.53389 0.0498047L6.31622 3.8333H24.0986C24.2804 3.83329 24.4597 3.87579 24.6222 3.9574C24.7847 4.03901 24.9259 4.15748 25.0345 4.30335C25.1431 4.44922 25.2161 4.61845 25.2476 4.79754C25.2792 4.97663 25.2684 5.16061 25.2162 5.3348L22.4162 14.6681C22.3442 14.9086 22.1965 15.1194 21.9952 15.2692C21.7938 15.4191 21.5495 15.5 21.2986 15.5H6.99989V17.8333H19.8332V20.1666H5.83322C5.5238 20.1666 5.22706 20.0437 5.00827 19.8249C4.78947 19.6061 4.66656 19.3094 4.66656 19V5.48297ZM6.99989 6.16664V13.1666H20.4306L22.5306 6.16664H6.99989ZM6.41656 24.8333C5.95243 24.8333 5.50731 24.6489 5.17912 24.3207C4.85093 23.9926 4.66656 23.5474 4.66656 23.0833C4.66656 22.6192 4.85093 22.1741 5.17912 21.8459C5.50731 21.5177 5.95243 21.3333 6.41656 21.3333C6.88069 21.3333 7.32581 21.5177 7.65399 21.8459C7.98218 22.1741 8.16656 22.6192 8.16656 23.0833C8.16656 23.5474 7.98218 23.9926 7.65399 24.3207C7.32581 24.6489 6.88069 24.8333 6.41656 24.8333ZM20.4166 24.8333C19.9524 24.8333 19.5073 24.6489 19.1791 24.3207C18.8509 23.9926 18.6666 23.5474 18.6666 23.0833C18.6666 22.6192 18.8509 22.1741 19.1791 21.8459C19.5073 21.5177 19.9524 21.3333 20.4166 21.3333C20.8807 21.3333 21.3258 21.5177 21.654 21.8459C21.9822 22.1741 22.1666 22.6192 22.1666 23.0833C22.1666 23.5474 21.9822 23.9926 21.654 24.3207C21.3258 24.6489 20.8807 24.8333 20.4166 24.8333Z" fill="#311C1C"/>
</svg>
