<svg width="16" height="16" viewBox="0 0 16 16" fill="none" xmlns="http://www.w3.org/2000/svg">
<g clip-path="url(#clip0_62_1189)">
<path d="M4.13623 4.73828H1.43896C1.1366 4.73828 0.890625 4.98425 0.890625 5.28662V15.4518C0.890625 15.754 1.1366 16 1.43896 16H4.13623C4.43848 16 4.68445 15.754 4.68445 15.4518V5.28662C4.68445 4.98425 4.43848 4.73828 4.13623 4.73828ZM3.74561 15.0611H1.82947V5.67712H3.74561V15.0611Z" fill="#311C1C"/>
<path d="M2.7876 0C1.73291 0 0.875 0.857909 0.875 1.91247C0.875 2.96716 1.73291 3.82507 2.7876 3.82507C3.84204 3.82507 4.70007 2.96716 4.70007 1.91247C4.70007 0.857909 3.84216 0 2.7876 0ZM2.7876 2.88622C2.25061 2.88622 1.81384 2.44946 1.81384 1.91247C1.81384 1.37561 2.25061 0.938841 2.7876 0.938841C3.32446 0.938841 3.76123 1.37561 3.76123 1.91247C3.76123 2.44934 3.32446 2.88622 2.7876 2.88622Z" fill="#311C1C"/>
<path d="M13.4077 5.93005C12.7629 5.39184 11.9432 5.104 11.1005 5.11963C10.577 5.12927 10.0656 5.25549 9.60205 5.48401V5.26208C9.60205 4.9729 9.36755 4.7384 9.07837 4.7384H6.33203C6.04285 4.7384 5.80835 4.9729 5.80835 5.26208V15.4763C5.80835 15.7656 6.04285 16 6.33203 16H9.13257C9.39185 16 9.60205 15.7898 9.60205 15.5306V9.44067C9.60205 8.9193 10.01 8.47814 10.531 8.46264C11.0725 8.44665 11.5181 8.88232 11.5181 9.42028V15.5404C11.5181 15.7942 11.7239 16 11.9777 16H14.6692C14.923 16 15.1288 15.7942 15.1288 15.5404V9.60644C15.1288 8.1831 14.5015 6.84301 13.4077 5.93005ZM14.1899 15.0611H12.457V9.42028C12.457 8.37438 11.6061 7.52343 10.5601 7.52343C9.51416 7.52343 8.66321 8.37438 8.66321 9.42028V15.0611H6.74719V5.67712H8.66321V6.35937H8.66382C8.6637 6.46997 8.70215 6.58105 8.78125 6.67053C8.953 6.86462 9.24976 6.88269 9.44385 6.71081C9.90637 6.30139 10.5009 6.0697 11.1178 6.05823C11.7354 6.04651 12.3347 6.2572 12.8062 6.65075C13.6857 7.38488 14.1899 8.46215 14.1899 9.60644V15.0611Z" fill="#311C1C"/>
</g>
<defs>
<clipPath id="clip0_62_1189">
<rect width="16" height="16" fill="white"/>
</clipPath>
</defs>
</svg>
