<svg width="22" height="22" viewBox="0 0 22 22" fill="none" xmlns="http://www.w3.org/2000/svg">
<path d="M15.6667 15.6665L20.3334 20.3332M1.66675 9.6665C1.66675 10.7171 1.87367 11.7574 2.27571 12.728C2.67775 13.6986 3.26703 14.5805 4.00989 15.3234C4.75276 16.0662 5.63468 16.6555 6.60528 17.0575C7.57589 17.4596 8.61617 17.6665 9.66675 17.6665C10.7173 17.6665 11.7576 17.4596 12.7282 17.0575C13.6988 16.6555 14.5807 16.0662 15.3236 15.3234C16.0665 14.5805 16.6557 13.6986 17.0578 12.728C17.4598 11.7574 17.6667 10.7171 17.6667 9.6665C17.6667 7.54477 16.8239 5.50994 15.3236 4.00965C13.8233 2.50936 11.7885 1.6665 9.66675 1.6665C7.54502 1.6665 5.51019 2.50936 4.00989 4.00965C2.5096 5.50994 1.66675 7.54477 1.66675 9.6665Z" stroke="#311C1C" stroke-width="2" stroke-linecap="round" stroke-linejoin="round"/>
</svg>
