<svg width="27" height="26" viewBox="0 0 27 26" fill="none" xmlns="http://www.w3.org/2000/svg">
<path d="M9.23186 8.17121L12.4799 1.63004C12.5745 1.44074 12.7199 1.28152 12.8999 1.17023C13.0799 1.05895 13.2873 1 13.4989 1C13.7105 1 13.9179 1.05895 14.0979 1.17023C14.2778 1.28152 14.4233 1.44074 14.5178 1.63004L17.7659 8.17121L25.0272 9.2264C25.2366 9.25544 25.4337 9.34278 25.5959 9.47846C25.7581 9.61413 25.8788 9.79267 25.9444 9.99369C26.01 10.1947 26.0177 10.4101 25.9667 10.6153C25.9157 10.8205 25.8081 11.0073 25.656 11.1542L20.4026 16.2427L21.6428 23.4314C21.8016 24.3541 20.8264 25.0567 19.9925 24.6217L13.4989 21.226L7.00396 24.6217C6.17131 25.058 5.19614 24.3541 5.35491 23.4302L6.59514 16.2414L1.3417 11.153C1.1904 11.0059 1.0834 10.8194 1.03285 10.6145C0.982295 10.4097 0.990224 10.1948 1.05573 9.99422C1.12124 9.79366 1.2417 9.6155 1.40342 9.47999C1.56514 9.34448 1.76163 9.25705 1.97056 9.22765L9.23186 8.17121Z" stroke="#311C1C" stroke-width="2" stroke-linecap="round" stroke-linejoin="round"/>
</svg>
