<svg width="32" height="32" viewBox="0 0 32 32" fill="none" xmlns="http://www.w3.org/2000/svg">
<path d="M12.0001 14.6667C13.4146 14.6667 14.7711 14.1048 15.7713 13.1046C16.7715 12.1044 17.3334 10.7478 17.3334 9.33333C17.3334 7.91885 16.7715 6.56229 15.7713 5.5621C14.7711 4.5619 13.4146 4 12.0001 4C10.5856 4 9.22904 4.5619 8.22885 5.5621C7.22865 6.56229 6.66675 7.91885 6.66675 9.33333C6.66675 10.7478 7.22865 12.1044 8.22885 13.1046C9.22904 14.1048 10.5856 14.6667 12.0001 14.6667V14.6667Z" stroke="#311C1C" stroke-width="2" stroke-linecap="round" stroke-linejoin="round"/>
<path d="M7.92422 15.6038C6.34823 16.3689 5.01936 17.562 4.08962 19.0468C3.15988 20.5316 2.6668 22.2481 2.66678 24C2.66678 24 2.37214 18.2993 7.92422 15.6038ZM7.92422 15.6038C9.50022 14.8388 11.2597 14.5327 13.0015 14.7207C14.7432 14.9086 16.3969 15.583 17.7734 16.6667C17.7734 16.6667 14 13.0008 7.92422 15.6038ZM22.6668 17.3333H25.3334M28.4854 22.276L28.8801 24.9427C28.9362 25.3217 28.91 25.7084 28.8033 26.0764C28.6965 26.4444 28.5117 26.785 28.2614 27.0752C28.0111 27.3653 27.7013 27.5981 27.3529 27.7577C27.0046 27.9173 26.6259 27.9999 26.2428 28H21.7574C21.3743 27.9999 20.9956 27.9173 20.6473 27.7577C20.2989 27.5981 19.9891 27.3653 19.7388 27.0752C19.4885 26.785 19.3037 26.4444 19.1969 26.0764C19.0902 25.7084 19.064 25.3217 19.1201 24.9427L19.5148 22.276C19.6085 21.6435 19.9263 21.0656 20.4104 20.6478C20.8945 20.2301 21.5127 20.0001 22.1521 20H25.8481C26.4876 20.0001 27.1057 20.2301 27.5898 20.6478C28.0739 21.0656 28.3918 21.6435 28.4854 22.276Z" stroke="#311C1C" stroke-width="2" stroke-linecap="round" stroke-linejoin="round"/>
</svg>
