<svg width="22" height="24" viewBox="0 0 22 24" fill="none" xmlns="http://www.w3.org/2000/svg">
<path d="M1.66675 22.6668V21.3335C1.66675 18.8581 2.65008 16.4842 4.40042 14.7338C6.15076 12.9835 8.52473 12.0002 11.0001 12.0002V12.0002C13.4754 12.0002 15.8494 12.9835 17.5997 14.7338C19.3501 16.4842 20.3334 18.8581 20.3334 21.3335V22.6668H1.66675ZM11.0001 12.0002C12.4146 12.0002 13.7711 11.4383 14.7713 10.4381C15.7715 9.43787 16.3334 8.08132 16.3334 6.66683C16.3334 5.25234 15.7715 3.89579 14.7713 2.89559C13.7711 1.8954 12.4146 1.3335 11.0001 1.3335C9.58559 1.3335 8.22904 1.8954 7.22885 2.89559C6.22865 3.89579 5.66675 5.25234 5.66675 6.66683C5.66675 8.08132 6.22865 9.43787 7.22885 10.4381C8.22904 11.4383 9.58559 12.0002 11.0001 12.0002V12.0002Z" stroke="#311C1C" stroke-width="2" stroke-linecap="round" stroke-linejoin="round"/>
</svg>
